# xmcd CD database file
#
# Track frame offsets:
#	150
#	19492
#	35497
#	50982
#	68805
#	87477
#	100085
#	113337
#	131355
#	142850
#	161322
#	174985
#	203380
#
# Disc length: 4440 seconds
#
# Revision: 0
# Processed by: cddbd v1.5.1PL2 Copyright (c) Steve Scherf et al.
# Submitted via: CDex 1.51
#
DISCID=a211560d
DTITLE=03(ゼロサン) - Monster
DYEAR=2004
DGENRE=Rock
TTITLE0=Fed up
TTITLE1=Monster
TTITLE2=Music Business
TTITLE3=サクラチル
TTITLE4=3秒間
TTITLE5=東京解放区
TTITLE6=DEVIL=MAN
TTITLE7=20世紀少年
TTITLE8=自由に歩いて愛して
TTITLE9=I Shot the Sheriff
TTITLE10=逃げるな feat.Marty Friedman(ex MEGADETH)
TTITLE11=君死にたまふことなかれ(Acoustic Version)
TTITLE12=DataTrax
EXTD=YEAR: 2004
EXTT0=
EXTT1=
EXTT2=
EXTT3=
EXTT4=
EXTT5=
EXTT6=
EXTT7=
EXTT8=
EXTT9=
EXTT10=
EXTT11=
EXTT12=
PLAYORDER=
